<svg xmlns="http://www.w3.org/2000/svg" width="278" height="61" viewBox="0 0 270 61"><g><g><g><path fill="#fff" d="M4 44.618v1.247h4.006v10.708h1.347V45.865h4.007v-1.247z"/></g><g><path fill="#fff" d="M15.845 47.741h1.313v2.306c.16-.365.358-.701.597-1.008a4.04 4.04 0 0 1 .819-.794 3.48 3.48 0 0 1 1.005-.504 3.657 3.657 0 0 1 1.176-.153v1.417h-.101c-.478 0-.93.084-1.356.256a3.07 3.07 0 0 0-1.117.769 3.672 3.672 0 0 0-.75 1.273c-.182.506-.273 1.09-.273 1.75v3.517h-1.313z"/></g><g><path fill="#fff" d="M25.813 55.683c-.295 0-.575-.038-.84-.119a2.256 2.256 0 0 1-.704-.34 1.545 1.545 0 0 1-.662-1.291V53.9c0-.532.223-.96.67-1.282.447-.323 1.078-.485 1.891-.485.543 0 1.024.04 1.442.118.418.081.791.166 1.12.255v.817c0 .351-.077.672-.23.96-.152.289-.361.538-.627.748-.266.21-.574.37-.925.483-.349.115-.729.17-1.135.17m-.262 1.077c.773 0 1.417-.152 1.935-.453.518-.301.93-.652 1.237-1.05v1.314h1.294v-5.395c0-1.117-.306-1.981-.92-2.596-.647-.65-1.597-.973-2.847-.973-.648 0-1.222.068-1.722.207-.5.14-.995.325-1.484.554l.393 1.083c.409-.194.826-.347 1.253-.462a5.57 5.57 0 0 1 1.424-.17c.83 0 1.471.201 1.926.603.455.401.683.992.683 1.773v.27a11.792 11.792 0 0 0-1.22-.273 9.361 9.361 0 0 0-1.474-.101c-.558 0-1.065.06-1.526.187-.461.125-.858.307-1.194.547a2.464 2.464 0 0 0-.776.896c-.182.359-.272.777-.272 1.255v.035c0 .455.094.854.28 1.195.188.342.435.63.744.863.305.233.658.407 1.055.52.398.113.802.17 1.211.17"/></g><g><path fill="#fff" d="M33.086 47.744h1.311v8.829h-1.311zM33 44.364h1.5v1.451H33z"/></g><g><path fill="#fff" d="M37.618 47.744h1.312v1.538a4.156 4.156 0 0 1 1.16-1.22c.478-.338 1.097-.506 1.858-.506.535 0 1.01.085 1.423.256.415.171.768.414 1.059.726.288.314.51.686.664 1.12.153.433.23.91.23 1.434v5.48h-1.312v-5.145c0-.819-.211-1.466-.63-1.942-.422-.478-1.024-.716-1.808-.716-.376 0-.725.065-1.049.196-.324.13-.606.318-.844.562-.24.244-.424.537-.555.877-.13.341-.196.716-.196 1.125v5.044h-1.312z"/></g><g><path fill="#fff" d="M48.412 47.744h1.322v8.829h-1.322zm-.085-3.38h1.5v1.451h-1.5z"/></g><g><path fill="#fff" d="M52.945 47.744h1.313v1.538a4.143 4.143 0 0 1 1.159-1.22c.478-.338 1.097-.506 1.858-.506.534 0 1.01.085 1.423.256.417.171.768.414 1.058.726.29.314.51.686.665 1.12.154.433.23.91.23 1.434v5.48H59.34v-5.145c0-.819-.211-1.466-.632-1.942-.42-.478-1.023-.716-1.807-.716-.375 0-.724.065-1.048.196-.325.13-.606.318-.844.562-.24.244-.424.537-.555.877a3.12 3.12 0 0 0-.195 1.125v5.044h-1.313z"/></g><g><path fill="#fff" d="M67.505 54.74c-.41 0-.798-.075-1.167-.223a3.072 3.072 0 0 1-.973-.615c-.278-.263-.5-.58-.664-.952a2.946 2.946 0 0 1-.248-1.223v-.033c0-.456.08-.867.238-1.23.16-.366.379-.678.657-.933.279-.257.603-.458.971-.6.37-.142.766-.213 1.186-.213.421 0 .824.071 1.21.214.386.141.732.345 1.032.606.301.263.543.577.725.94.181.367.273.777.273 1.233v.034c0 .445-.092.849-.273 1.215a3.187 3.187 0 0 1-1.757 1.565 3.438 3.438 0 0 1-1.21.215m.017 4.6c.705 0 1.34-.097 1.91-.29a3.74 3.74 0 0 0 1.45-.888c.362-.366.64-.806.834-1.324.193-.518.29-1.12.29-1.802v-7.292h-1.312v1.588a5.768 5.768 0 0 0-.614-.683 3.997 3.997 0 0 0-1.697-.948 4.216 4.216 0 0 0-1.134-.145 4.23 4.23 0 0 0-1.535.29 4.033 4.033 0 0 0-2.258 2.135c-.234.513-.35 1.093-.35 1.741v.035c0 .638.116 1.21.35 1.715a4.068 4.068 0 0 0 2.25 2.127c.494.194 1.01.29 1.543.29.807 0 1.49-.181 2.047-.546a5.602 5.602 0 0 0 1.414-1.315v1.042c0 1.035-.29 1.819-.869 2.349-.58.528-1.359.794-2.336.794a5.4 5.4 0 0 1-1.79-.292 6.326 6.326 0 0 1-1.603-.836l-.596 1.025c.59.409 1.222.717 1.892.922a7.21 7.21 0 0 0 2.114.307"/></g><g><path fill="#fff" d="M83.878 49.486a9.737 9.737 0 0 1-.57-.649 3.64 3.64 0 0 1-.366-.546 2.073 2.073 0 0 1-.256-1.008v-.035c0-.49.164-.899.494-1.23.329-.329.767-.494 1.313-.494.488 0 .892.156 1.21.47.318.313.477.708.477 1.187v.033c0 .513-.193.954-.58 1.324-.385.37-.96.686-1.722.948zm-.34 6.113c-.364 0-.699-.057-1.005-.17a2.355 2.355 0 0 1-.794-.479 2.156 2.156 0 0 1-.512-.718 2.194 2.194 0 0 1-.179-.887v-.034c0-.513.182-.993.547-1.442.363-.45.943-.823 1.738-1.12l3.189 3.297a5.597 5.597 0 0 1-1.39 1.135 3.194 3.194 0 0 1-1.595.418zm5.695 1.213l1.023-.786-2.08-2.135c.329-.431.633-.899.912-1.4.278-.501.548-1.036.81-1.605l-1.109-.513c-.216.502-.442.974-.682 1.417-.238.445-.488.86-.75 1.249l-2.728-2.785c.875-.308 1.563-.711 2.063-1.212.5-.5.75-1.133.75-1.896v-.034c0-.375-.074-.725-.221-1.05a2.768 2.768 0 0 0-1.518-1.435 3.074 3.074 0 0 0-1.159-.212c-.478 0-.91.073-1.296.22-.387.15-.715.35-.989.608a2.73 2.73 0 0 0-.87 2.005v.035c0 .477.098.917.29 1.315.194.398.495.837.904 1.315-.92.365-1.631.831-2.131 1.4-.5.569-.75 1.253-.75 2.05v.034c0 .5.094.955.282 1.365.186.41.448.764.782 1.06.336.296.734.523 1.195.683.46.158.957.238 1.492.238.784 0 1.494-.162 2.13-.485a6.35 6.35 0 0 0 1.774-1.377z"/></g><g><path fill="#fff" d="M103.398 56.778c-.864 0-1.66-.158-2.387-.479a5.862 5.862 0 0 1-3.146-3.26 6.428 6.428 0 0 1-.451-2.41v-.033c0-.842.15-1.638.45-2.391a6.164 6.164 0 0 1 1.255-1.972 5.832 5.832 0 0 1 1.91-1.333 5.97 5.97 0 0 1 2.42-.486c.545 0 1.038.046 1.474.137.439.091.845.22 1.22.384.375.166.722.366 1.04.598.317.233.625.493.921.777l-.921.99a7.5 7.5 0 0 0-1.646-1.178c-.584-.307-1.287-.461-2.105-.461a4.444 4.444 0 0 0-3.299 1.417 4.851 4.851 0 0 0-.972 1.563 5.264 5.264 0 0 0-.35 1.921v.034c0 .696.117 1.34.35 1.939a4.83 4.83 0 0 0 .972 1.562 4.56 4.56 0 0 0 1.466 1.05 4.384 4.384 0 0 0 1.833.385c.818 0 1.524-.152 2.114-.453.591-.302 1.17-.727 1.74-1.272l.886.87c-.308.32-.629.607-.964.863a5.935 5.935 0 0 1-1.082.658 6.214 6.214 0 0 1-1.244.428c-.444.1-.938.152-1.484.152"/></g><g><path fill="#fff" d="M114.531 55.599c-.464 0-.898-.092-1.294-.274a3.259 3.259 0 0 1-1.032-.734 3.358 3.358 0 0 1-.682-1.084 3.606 3.606 0 0 1-.248-1.34v-.035c0-.466.08-.908.24-1.324.158-.413.376-.776.656-1.083a3.088 3.088 0 0 1 2.327-1.008c.465 0 .898.092 1.295.272a3.347 3.347 0 0 1 1.73 1.836c.166.417.25.863.25 1.342v.034c0 .467-.08.905-.24 1.315a3.36 3.36 0 0 1-.666 1.075 3.15 3.15 0 0 1-1.022.734 3.12 3.12 0 0 1-1.313.274m-.034 1.177c.658 0 1.273-.12 1.841-.366a4.532 4.532 0 0 0 1.467-1c.41-.42.73-.91.963-1.467.233-.558.35-1.15.35-1.776v-.035c0-.626-.115-1.215-.342-1.767a4.486 4.486 0 0 0-.954-1.452 4.617 4.617 0 0 0-1.458-.991 4.555 4.555 0 0 0-1.833-.366c-.67 0-1.288.122-1.85.366a4.538 4.538 0 0 0-1.457 1c-.41.421-.728.911-.956 1.468a4.645 4.645 0 0 0-.34 1.777v.034c0 .626.112 1.215.34 1.767.228.552.546 1.037.956 1.452.409.415.892.745 1.448.99a4.489 4.489 0 0 0 1.825.366"/></g><g><path fill="#fff" d="M121.663 47.744h1.313v1.538a4.156 4.156 0 0 1 1.159-1.22c.478-.338 1.097-.506 1.86-.506.533 0 1.007.085 1.421.256.417.171.768.414 1.06.726.287.314.51.686.664 1.12.153.433.23.91.23 1.434v5.48h-1.313v-5.145c0-.819-.211-1.466-.63-1.942-.422-.478-1.024-.716-1.808-.716-.376 0-.725.065-1.049.196-.324.13-.606.318-.844.562a2.532 2.532 0 0 0-.553.877 3.12 3.12 0 0 0-.197 1.125v5.044h-1.313z"/></g><g><path fill="#fff" d="M135.248 56.739a5.638 5.638 0 0 1-1.925-.35 5.972 5.972 0 0 1-1.723-.948l.665-.94c.477.365.975.644 1.492.838.517.194 1.037.29 1.56.29.534 0 .972-.125 1.313-.375.34-.25.511-.591.511-1.026v-.033a.921.921 0 0 0-.178-.564 1.627 1.627 0 0 0-.486-.418 3.98 3.98 0 0 0-.708-.315 14.099 14.099 0 0 0-.827-.257 30.208 30.208 0 0 1-1.031-.332 4.228 4.228 0 0 1-.938-.455 2.283 2.283 0 0 1-.681-.682c-.177-.273-.265-.615-.265-1.025v-.034c0-.376.073-.72.221-1.032.148-.314.355-.582.622-.803.268-.223.587-.394.955-.513.369-.12.77-.179 1.202-.179.546 0 1.096.088 1.655.265a6.247 6.247 0 0 1 1.517.708l-.597.99a6.02 6.02 0 0 0-1.288-.623 4.066 4.066 0 0 0-1.32-.23c-.524 0-.938.123-1.245.367-.307.244-.46.549-.46.914v.034c0 .205.061.384.187.538.125.154.292.287.503.402.21.114.452.216.724.307.272.09.558.182.853.272.341.104.679.217 1.014.343.336.126.64.283.911.478.275.193.493.427.658.7.165.274.247.61.247 1.007v.034c0 .422-.082.795-.247 1.12-.165.323-.387.6-.665.828-.279.228-.608.4-.99.52-.38.119-.792.179-1.236.179"/></g><g><path fill="#fff" d="M144.234 56.756c-.535 0-1.01-.086-1.424-.256a2.954 2.954 0 0 1-1.057-.725 3.22 3.22 0 0 1-.666-1.12 4.295 4.295 0 0 1-.23-1.434v-5.482h1.313v5.145c0 .82.211 1.466.63 1.944.422.476 1.024.716 1.808.716.376 0 .725-.066 1.049-.197.324-.13.603-.316.835-.561.233-.244.417-.537.554-.879.137-.34.205-.715.205-1.123v-5.045h1.296v8.829h-1.296V55.03a4.165 4.165 0 0 1-1.158 1.22c-.479.337-1.098.505-1.86.505"/></g><g><path fill="#fff" d="M151.79 56.565h1.312V44.099h-1.313z"/></g><g><path fill="#fff" d="M159.272 56.723a3.45 3.45 0 0 1-.99-.137 2.044 2.044 0 0 1-.791-.434 2.02 2.02 0 0 1-.52-.778c-.126-.32-.189-.701-.189-1.145v-5.327h-1.227V47.74h1.227v-2.665h1.314v2.665h2.796v1.162h-2.796v5.143c0 .545.136.926.409 1.141.273.216.63.324 1.073.324.23 0 .44-.022.64-.064.198-.043.412-.119.64-.226v1.128c-.228.125-.47.219-.725.28a3.658 3.658 0 0 1-.86.095"/></g><g><path fill="#fff" d="M163.498 47.744h1.312v8.829h-1.312zm-.086-3.38h1.5v1.451h-1.5z"/></g><g><path fill="#fff" d="M168.03 47.744h1.314v1.538a4.156 4.156 0 0 1 1.159-1.22c.478-.338 1.096-.506 1.858-.506.534 0 1.01.085 1.423.256.416.171.768.414 1.058.726.29.314.512.686.665 1.12.153.433.23.91.23 1.434v5.48h-1.313v-5.145c0-.819-.21-1.466-.63-1.942-.422-.478-1.024-.716-1.807-.716-.376 0-.725.065-1.049.196-.325.13-.605.318-.843.562-.24.244-.425.537-.556.877a3.12 3.12 0 0 0-.195 1.125v5.044h-1.314z"/></g><g><path fill="#fff" d="M182.59 54.74c-.408 0-.8-.075-1.169-.223a3.09 3.09 0 0 1-.97-.615 2.962 2.962 0 0 1-.913-2.174v-.034c0-.456.08-.867.238-1.23.16-.366.379-.678.657-.933.278-.257.603-.458.97-.6a3.28 3.28 0 0 1 1.187-.213c.42 0 .824.071 1.21.214.387.141.732.345 1.033.606.3.263.542.577.723.94.181.367.274.777.274 1.233v.034c0 .445-.093.849-.274 1.215-.181.365-.424.68-.723.948a3.192 3.192 0 0 1-1.033.617c-.386.143-.79.215-1.21.215m.017 4.6c.704 0 1.342-.097 1.91-.29a3.744 3.744 0 0 0 1.45-.888c.362-.366.641-.806.833-1.324.194-.518.291-1.12.291-1.802v-7.292h-1.312v1.588a5.857 5.857 0 0 0-.614-.683 3.979 3.979 0 0 0-1.697-.948 4.211 4.211 0 0 0-1.134-.145c-.524 0-1.035.098-1.535.29a4.033 4.033 0 0 0-2.258 2.135c-.234.513-.35 1.093-.35 1.741v.035c0 .638.116 1.21.35 1.715a4.068 4.068 0 0 0 2.25 2.127 4.18 4.18 0 0 0 1.543.29c.807 0 1.489-.181 2.045-.546a5.556 5.556 0 0 0 1.415-1.315v1.042c0 1.035-.288 1.819-.868 2.349-.58.528-1.359.794-2.336.794a5.4 5.4 0 0 1-1.79-.292 6.286 6.286 0 0 1-1.602-.836l-.597 1.025c.59.409 1.22.717 1.892.922a7.21 7.21 0 0 0 2.114.307"/></g><g><path fill="#fff" d="M199.815 56.74c-.954 0-1.827-.156-2.617-.47-.79-.313-1.543-.793-2.26-1.443l.836-.989c.624.57 1.257.993 1.893 1.27.637.28 1.37.42 2.2.42.807 0 1.451-.19 1.935-.573.483-.38.723-.867.723-1.459v-.035c0-.273-.045-.52-.136-.742a1.53 1.53 0 0 0-.479-.607c-.227-.181-.543-.347-.947-.494-.406-.149-.92-.291-1.548-.428a12.195 12.195 0 0 1-1.784-.513c-.508-.193-.927-.426-1.258-.7a2.586 2.586 0 0 1-.735-.956c-.16-.363-.238-.79-.238-1.281v-.034c0-.466.096-.9.29-1.298.192-.397.465-.742.818-1.033.351-.29.767-.517 1.244-.683.477-.165 1.001-.247 1.57-.247.874 0 1.638.122 2.292.368a6.936 6.936 0 0 1 1.9 1.101l-.784 1.041c-.557-.454-1.116-.785-1.679-.991a5.127 5.127 0 0 0-1.764-.306c-.784 0-1.404.184-1.86.555-.454.369-.68.828-.68 1.375v.033c0 .286.044.538.135.76.09.222.256.427.495.616.238.187.568.356.99.511.419.154.96.299 1.618.435 1.331.297 2.31.708 2.942 1.23.63.524.946 1.242.946 2.153v.033c0 .513-.101.976-.303 1.392-.201.415-.48.772-.836 1.067a3.776 3.776 0 0 1-1.283.684c-.5.16-1.044.238-1.636.238"/></g><g><path fill="#fff" d="M210.626 55.599c-.467 0-.9-.092-1.296-.274a3.27 3.27 0 0 1-1.714-1.818 3.605 3.605 0 0 1-.247-1.34v-.035c0-.466.08-.908.238-1.324a3.44 3.44 0 0 1 .657-1.083 3.088 3.088 0 0 1 2.328-1.008c.465 0 .898.092 1.295.272a3.352 3.352 0 0 1 1.73 1.837c.166.416.248.862.248 1.34v.035c0 .467-.079.905-.24 1.315a3.34 3.34 0 0 1-.664 1.075 3.16 3.16 0 0 1-1.022.734 3.118 3.118 0 0 1-1.313.274m-.034 1.177c.657 0 1.272-.12 1.84-.366a4.52 4.52 0 0 0 1.468-1c.408-.42.73-.91.962-1.467.233-.558.35-1.15.35-1.776v-.035c0-.626-.114-1.215-.341-1.767a4.47 4.47 0 0 0-.954-1.452 4.617 4.617 0 0 0-1.459-.991 4.554 4.554 0 0 0-1.832-.366 4.6 4.6 0 0 0-1.85.366 4.543 4.543 0 0 0-1.459 1c-.408.421-.728.911-.955 1.468a4.683 4.683 0 0 0-.339 1.777v.034c0 .626.113 1.215.339 1.767a4.49 4.49 0 0 0 .955 1.452c.41.415.893.745 1.45.99a4.482 4.482 0 0 0 1.825.366"/></g><g><path fill="#fff" d="M217.868 56.565h1.313V44.099h-1.313z"/></g><g><path fill="#fff" d="M225.64 56.756a3.722 3.722 0 0 1-1.425-.256 2.95 2.95 0 0 1-1.056-.725 3.203 3.203 0 0 1-.665-1.12 4.27 4.27 0 0 1-.23-1.434v-5.482h1.313v5.145c0 .82.21 1.466.63 1.944.42.476 1.025.716 1.807.716.376 0 .725-.066 1.049-.197.323-.13.603-.316.836-.561.233-.244.417-.537.554-.879.136-.34.204-.715.204-1.123v-5.045h1.296v8.829h-1.296V55.03a4.156 4.156 0 0 1-1.159 1.22c-.477.337-1.097.505-1.858.505"/></g><g><path fill="#fff" d="M236.03 56.723a3.45 3.45 0 0 1-.99-.137 2.055 2.055 0 0 1-.793-.434 2.019 2.019 0 0 1-.52-.778c-.124-.32-.186-.701-.186-1.145v-5.327h-1.229V47.74h1.229v-2.665h1.311v2.665h2.797v1.162h-2.797v5.143c0 .545.137.926.411 1.141.272.216.63.324 1.073.324.226 0 .44-.022.64-.064.198-.043.412-.119.639-.226v1.128c-.227.125-.47.219-.724.28a3.661 3.661 0 0 1-.862.095"/></g><g><path fill="#fff" d="M240.255 47.744h1.313v8.829h-1.313zm-.086-3.38h1.501v1.451h-1.501z"/></g><g><path fill="#fff" d="M248.843 55.599c-.467 0-.899-.092-1.295-.274a3.259 3.259 0 0 1-1.032-.734 3.378 3.378 0 0 1-.683-1.084 3.626 3.626 0 0 1-.247-1.34v-.035c0-.466.08-.908.24-1.324.159-.413.378-.776.655-1.083a3.098 3.098 0 0 1 2.328-1.008c.466 0 .9.092 1.295.272a3.34 3.34 0 0 1 1.73 1.837c.166.416.25.862.25 1.34v.035c0 .467-.082.905-.24 1.315-.159.41-.382.768-.665 1.075a3.153 3.153 0 0 1-2.336 1.008m-.034 1.177a4.593 4.593 0 0 0 3.308-1.365c.408-.421.73-.911.963-1.468.233-.558.35-1.15.35-1.776v-.035c0-.626-.113-1.215-.342-1.767a4.457 4.457 0 0 0-.955-1.452 4.559 4.559 0 0 0-3.29-1.357c-.67 0-1.288.122-1.85.366a4.554 4.554 0 0 0-1.459 1c-.408.421-.725.911-.954 1.468a4.665 4.665 0 0 0-.34 1.777v.034c0 .626.113 1.215.34 1.767.229.552.546 1.037.954 1.452.411.415.894.745 1.45.99a4.486 4.486 0 0 0 1.825.366"/></g><g><path fill="#fff" d="M255.973 47.744h1.312v1.538a4.143 4.143 0 0 1 1.16-1.22c.478-.338 1.096-.506 1.86-.506.532 0 1.007.085 1.421.256.415.171.768.414 1.059.726.288.314.51.686.664 1.12.154.433.23.91.23 1.434v5.48h-1.313v-5.145c0-.819-.21-1.466-.63-1.942-.422-.478-1.024-.716-1.808-.716-.376 0-.723.065-1.049.196-.324.13-.604.318-.844.562a2.552 2.552 0 0 0-.555.877c-.13.341-.195.716-.195 1.125v5.044h-1.312z"/></g><g><path fill="#fff" d="M269.554 56.739a5.628 5.628 0 0 1-1.924-.35 5.988 5.988 0 0 1-1.72-.948l.665-.94c.476.365.973.644 1.489.838.517.194 1.037.29 1.558.29.533 0 .97-.125 1.311-.375a1.21 1.21 0 0 0 .511-1.026v-.033a.917.917 0 0 0-.18-.564 1.625 1.625 0 0 0-.485-.418 3.96 3.96 0 0 0-.705-.315 14.063 14.063 0 0 0-.826-.257 29.418 29.418 0 0 1-1.03-.332 4.219 4.219 0 0 1-.937-.455 2.274 2.274 0 0 1-.68-.682c-.176-.273-.264-.615-.264-1.025v-.034a2.326 2.326 0 0 1 .842-1.835c.267-.223.585-.394.954-.513.368-.12.767-.179 1.199-.179.545 0 1.094.088 1.652.265a6.216 6.216 0 0 1 1.515.708l-.596.99a6.023 6.023 0 0 0-1.285-.623 4.057 4.057 0 0 0-1.32-.23c-.523 0-.936.123-1.243.367-.305.244-.46.549-.46.914v.034c0 .205.063.384.188.538.125.154.292.287.503.402.21.114.45.216.722.307.273.09.558.182.852.272.342.104.679.217 1.013.343.335.126.639.283.91.478.273.193.493.427.656.7.165.274.247.61.247 1.007v.034c0 .422-.082.795-.247 1.12-.163.323-.386.6-.664.828-.277.228-.607.4-.987.52-.38.119-.791.179-1.234.179"/></g><g><path fill="#fff" d="M4.02 15.18v-.08C4.02 7.2 9.926.728 18.33.728c5.112 0 8.204 1.788 10.858 4.327l-3.13 3.613c-2.22-2.064-4.598-3.453-7.768-3.453-5.311 0-9.157 4.365-9.157 9.805v.08c0 5.438 3.846 9.885 9.157 9.885 3.408 0 5.587-1.39 7.967-3.613l3.13 3.176c-2.894 3.017-6.064 4.923-11.257 4.923-8.084 0-14.11-6.312-14.11-14.292"/></g><g><path fill="#fff" d="M47.27 18.636c0 3.613-2.458 6.67-6.342 6.67-3.725 0-6.38-3.097-6.38-6.748v-.08c0-3.654 2.457-6.67 6.3-6.67 3.767 0 6.422 3.056 6.422 6.75v.078m-17.519 0c0 5.955 4.716 10.838 11.098 10.838 6.46 0 11.217-4.963 11.217-10.916v-.08c0-5.995-4.718-10.877-11.138-10.877-6.421 0-11.176 4.961-11.176 10.957v.078"/></g><g><path fill="#fff" d="M54.143 8.038h4.796v3.256c1.347-1.985 3.29-3.693 6.539-3.693 4.717 0 7.452 3.177 7.452 8.06V29h-4.796v-11.91c0-3.255-1.625-5.12-4.478-5.12-2.775 0-4.717 1.944-4.717 5.2v11.83h-4.796z"/></g><g><path fill="#fff" d="M91.764 17.532c0 3.376-2.814 5.761-6.144 5.761-3.29 0-5.945-2.345-5.945-5.8v-.081c0-3.457 2.617-5.762 5.945-5.762 3.33 0 6.144 2.345 6.144 5.801v.08M75.871 32.93c2.695 1.628 5.905 2.5 9.352 2.5 3.766 0 6.7-.912 8.602-2.817 1.745-1.747 2.655-4.367 2.655-7.9V8.038h-4.795v3.137C90.06 9.229 87.881 7.6 84.351 7.6c-4.874 0-9.512 3.653-9.512 9.845v.08c0 6.153 4.599 9.806 9.512 9.806 3.45 0 5.629-1.588 7.374-3.852v1.629c0 4.208-2.339 6.43-6.62 6.43-2.853 0-5.23-.833-7.45-2.222l-1.784 3.612"/></g><g><path fill="#fff" d="M103.358 17.04c.435-3.25 2.497-5.509 5.43-5.509 3.17 0 4.994 2.418 5.311 5.509zm-4.757 1.557c0 6.471 4.678 10.878 10.742 10.878 3.844 0 6.58-1.548 8.561-3.93l-2.814-2.5c-1.665 1.628-3.33 2.5-5.668 2.5-3.092 0-5.51-1.905-6.025-5.32h15.378c.04-.476.08-.913.08-1.35 0-6.034-3.37-11.274-10.028-11.274-5.985 0-10.226 4.923-10.226 10.918z"/></g><g><path fill="#fff" d="M121.704 8.037h4.796v4.725c1.307-3.137 3.725-5.28 7.412-5.122v5.08h-.278c-4.202 0-7.134 2.742-7.134 8.299v7.979h-4.796z"/></g><g><path fill="#fff" d="M158.274 7.796c0 1.985-1.508 3.294-4.367 4.326-1.548-1.707-2.103-2.74-2.103-4.129v-.078c0-1.946 1.31-3.336 3.295-3.336 1.866 0 3.175 1.27 3.175 3.136zm.159 15.123c-1.587 1.51-3.333 2.423-5.238 2.423-2.698 0-4.642-1.706-4.642-4.05v-.078c0-1.787 1.111-3.494 3.69-4.606zm6.45 6.632l3.607-2.581-4.36-4.446c1.426-1.945 2.655-4.13 3.765-6.353l-3.686-1.944c-.912 1.945-1.902 3.771-2.973 5.358l-4.756-4.842c3.687-1.39 6.104-3.573 6.104-7.226v-.08c0-3.73-2.973-6.709-7.372-6.709-4.954 0-7.967 3.257-7.967 6.987v.081c0 2.023.714 3.771 2.3 5.795-3.806 1.628-5.906 4.207-5.906 7.78v.081c0 4.803 3.883 7.94 9.036 7.94 3.37 0 6.144-1.39 8.522-3.613z"/></g><g><path fill="#fff" d="M181.175 1.206h20.57v4.367H186.05v7.224h13.911v4.368H186.05v7.463h15.893v4.367h-20.768z"/></g><g><path fill="#fff" d="M205.962 28.997h4.795V.017h-4.795z"/></g><g><path fill="#fff" d="M213.017 26.26l2.14-3.253c2.259 1.707 4.716 2.58 6.857 2.58 2.06 0 3.249-.873 3.249-2.263v-.08c0-1.627-2.219-2.183-4.676-2.937-3.091-.874-6.54-2.145-6.54-6.154v-.079c0-3.971 3.29-6.392 7.451-6.392 2.617 0 5.47.913 7.69 2.382l-1.903 3.415c-2.022-1.23-4.162-1.985-5.906-1.985-1.863 0-2.932.873-2.932 2.103v.08c0 1.507 2.26 2.143 4.716 2.938 3.052.952 6.5 2.341 6.5 6.112v.08c0 4.407-3.408 6.59-7.769 6.59-2.973 0-6.26-1.071-8.877-3.136"/></g><g><path fill="#fff" d="M236.662 17.04c.437-3.25 2.498-5.509 5.431-5.509 3.17 0 4.994 2.418 5.31 5.509zm-4.756 1.557c0 6.471 4.678 10.878 10.742 10.878 3.844 0 6.579-1.548 8.561-3.93l-2.814-2.5c-1.665 1.628-3.33 2.5-5.668 2.5-3.092 0-5.51-1.905-6.026-5.32h15.38c.04-.476.08-.913.08-1.35 0-6.034-3.37-11.274-10.03-11.274-5.984 0-10.225 4.923-10.225 10.918z"/></g><g><path fill="#fff" d="M268.433 21.41c0 2.62-2.378 4.407-5.549 4.407-2.258 0-4.043-1.113-4.043-3.098v-.078c0-2.025 1.785-3.256 4.796-3.256 1.864 0 3.567.356 4.796.834zm4.637 7.582V16.566c0-5.597-3.01-8.853-9.194-8.853-3.41 0-5.668.715-7.967 1.747l1.307 3.85c1.904-.792 3.647-1.309 5.986-1.309 3.33 0 5.152 1.588 5.152 4.486v.398c-1.625-.517-3.25-.875-5.786-.875-4.876 0-8.483 2.223-8.483 6.868v.079c0 4.209 3.489 6.472 7.452 6.472 3.17 0 5.35-1.31 6.777-3.018v2.58z"/></g><g><path fill="none" stroke="#fff" stroke-miterlimit="20" stroke-width=".39" d="M4.183 39.484h267.27"/></g></g></g></svg>