<svg xmlns="http://www.w3.org/2000/svg" width="194" height="44" viewBox="0 0 194 44"><defs><clipPath id="1ip6a"><path d="M0 43.521h193.33V.733H0z"/></clipPath></defs><g><g><g><path fill="#959799" d="M8.511 35.158h.943v1.663c.115-.263.258-.506.43-.728.17-.22.367-.412.588-.572.22-.16.46-.281.722-.363.261-.082.544-.118.845-.111v1.022h-.073c-.343 0-.668.061-.974.185a2.206 2.206 0 0 0-.803.554 2.65 2.65 0 0 0-.539.919c-.13.365-.196.786-.196 1.262v2.537h-.943z"/></g><g><path fill="#959799" d="M15.07 40.8a1.619 1.619 0 0 1-.506-.244 1.118 1.118 0 0 1-.475-.931v-.026c0-.383.16-.692.48-.924.321-.234.775-.35 1.36-.35.39 0 .735.028 1.035.085.3.058.569.12.805.184v.589c0 .253-.055.484-.166.692a1.66 1.66 0 0 1-.45.54 2.093 2.093 0 0 1-.664.349 2.594 2.594 0 0 1-.816.122zm1.805.537c.372-.218.668-.471.89-.758v.947h.929v-3.89c0-.807-.22-1.43-.66-1.874-.466-.468-1.149-.701-2.047-.701-.466 0-.878.049-1.237.15-.359.1-.715.233-1.066.399l.282.78c.294-.14.593-.25.9-.332a3.987 3.987 0 0 1 1.023-.123c.597 0 1.058.145 1.384.435.327.29.491.715.491 1.279v.195a8.443 8.443 0 0 0-.877-.198 6.7 6.7 0 0 0-1.059-.072c-.4 0-.765.044-1.096.135-.332.09-.617.221-.858.394-.24.173-.427.388-.558.646-.13.26-.195.561-.195.906v.025c0 .328.067.616.202.862.134.247.312.454.533.622.22.169.474.294.759.376.286.081.576.123.87.123z"/></g><g/><g clip-path="url(#1ip6a)"><path fill="#959799" d="M20.899 35.16h.942v6.368H20.9zm-.062-2.439h1.078v1.048h-1.078z"/></g><g clip-path="url(#1ip6a)"><path fill="#959799" d="M24.155 35.16h.943v1.11c.213-.346.49-.64.833-.882.344-.243.788-.364 1.335-.364.385 0 .725.062 1.023.185.298.123.551.298.76.523.208.227.368.495.478.808.11.312.165.656.165 1.035v3.953h-.943v-3.711c0-.592-.151-1.058-.453-1.402-.302-.345-.735-.516-1.299-.516-.27 0-.52.047-.753.141-.233.094-.435.23-.607.406a1.83 1.83 0 0 0-.398.632c-.093.246-.14.517-.14.812v3.638h-.944z"/></g><g clip-path="url(#1ip6a)"><path fill="#959799" d="M31.91 35.16h.95v6.368h-.95zm-.06-2.439h1.078v1.048H31.85z"/></g><g clip-path="url(#1ip6a)"><path fill="#959799" d="M35.168 35.16h.943v1.11c.212-.346.49-.64.833-.882.343-.243.788-.364 1.335-.364.384 0 .725.062 1.023.185.299.123.551.298.76.523.208.227.367.495.477.808.111.312.166.656.166 1.035v3.953h-.943v-3.711c0-.592-.152-1.058-.454-1.402-.302-.345-.735-.516-1.299-.516-.269 0-.52.047-.752.141-.234.094-.436.23-.607.406a1.83 1.83 0 0 0-.398.632c-.094.246-.141.517-.141.812v3.638h-.943z"/></g><g clip-path="url(#1ip6a)"><path fill="#959799" d="M44.79 40.045a2.206 2.206 0 0 1-.698-.444 2.132 2.132 0 0 1-.656-1.568v-.024c0-.33.058-.625.172-.888.114-.263.272-.488.472-.673.2-.185.433-.33.698-.432a2.478 2.478 0 0 1 1.721 0c.278.103.526.25.741.438.217.19.39.416.521.678.13.265.196.56.196.89v.023c0 .321-.065.613-.196.877A2.288 2.288 0 0 1 46.5 40.05a2.462 2.462 0 0 1-.87.155zm2.224 3.27c.408-.14.755-.355 1.042-.64.26-.265.46-.582.6-.956.138-.374.207-.807.207-1.3v-5.26h-.942v1.146a4.154 4.154 0 0 0-.441-.493 2.818 2.818 0 0 0-1.22-.683c-.25-.07-.52-.105-.814-.105-.376 0-.744.07-1.103.21-.36.14-.678.339-.956.597-.277.259-.5.573-.667.943-.168.37-.251.787-.251 1.255v.025c0 .46.083.873.251 1.237a2.934 2.934 0 0 0 1.617 1.534c.355.14.725.21 1.109.21.58 0 1.07-.131 1.47-.394a4.031 4.031 0 0 0 1.017-.949v.752c0 .747-.209 1.312-.625 1.694-.417.381-.976.573-1.679.573-.458 0-.886-.07-1.286-.21a4.54 4.54 0 0 1-1.152-.603l-.428.739a4.9 4.9 0 0 0 1.36.665c.482.147.987.221 1.519.221z"/></g><g clip-path="url(#1ip6a)"><path fill="#959799" d="M57.394 36.416a7.011 7.011 0 0 1-.41-.468 2.627 2.627 0 0 1-.263-.394 1.499 1.499 0 0 1-.184-.727v-.025c0-.353.118-.648.355-.887.237-.237.552-.357.944-.357.35 0 .64.113.87.339.228.226.342.511.342.856v.025c0 .37-.14.687-.416.954-.277.267-.69.495-1.238.684zm-.245 4.41c-.261 0-.502-.042-.721-.124a1.69 1.69 0 0 1-.571-.344 1.555 1.555 0 0 1-.496-1.158v-.025c0-.37.13-.716.392-1.04.261-.325.678-.593 1.25-.808l2.29 2.379c-.31.344-.643.617-.998.818-.355.2-.737.301-1.146.301zm4.092.874l.735-.567-1.494-1.54c.236-.31.455-.648.655-1.01.2-.36.394-.747.582-1.157l-.796-.37c-.156.362-.318.703-.49 1.022-.172.32-.351.62-.54.9l-1.96-2.008c.63-.222 1.123-.513 1.483-.874.359-.361.538-.818.538-1.368v-.024c0-.271-.052-.523-.158-.758a1.996 1.996 0 0 0-1.09-1.035 2.201 2.201 0 0 0-.833-.153c-.344 0-.655.053-.932.16a2.157 2.157 0 0 0-.71.438 1.97 1.97 0 0 0-.625 1.446v.025c0 .344.07.661.208.949.139.286.356.603.65.948-.662.263-1.173.6-1.532 1.01-.359.41-.54.904-.54 1.478v.025c0 .36.069.69.204.985.134.295.322.55.562.764.241.214.527.378.858.493.332.114.688.171 1.073.171.563 0 1.073-.116 1.53-.35a4.564 4.564 0 0 0 1.274-.992z"/></g><g clip-path="url(#1ip6a)"><path fill="#959799" d="M71.419 41.676a4.211 4.211 0 0 1-3.976-2.697 4.653 4.653 0 0 1-.323-1.738v-.024c0-.608.108-1.182.323-1.725a4.448 4.448 0 0 1 .902-1.422 4.19 4.19 0 0 1 1.372-.961 4.276 4.276 0 0 1 1.74-.351c.39 0 .745.033 1.058.098.315.066.607.159.877.277.269.12.518.264.747.432.228.168.449.355.662.56l-.662.715a5.389 5.389 0 0 0-1.183-.85c-.42-.221-.924-.333-1.512-.333a3.182 3.182 0 0 0-2.37 1.022c-.299.32-.531.697-.7 1.127a3.81 3.81 0 0 0-.25 1.386v.025c0 .502.084.967.25 1.398.169.431.401.808.7 1.127.297.32.649.574 1.053.758a3.14 3.14 0 0 0 1.317.277c.588 0 1.095-.11 1.519-.326.424-.218.84-.525 1.25-.918l.637.628a6.22 6.22 0 0 1-.693.622c-.24.185-.5.343-.778.474a4.452 4.452 0 0 1-.894.31c-.318.072-.674.11-1.066.11"/></g><g clip-path="url(#1ip6a)"><path fill="#959799" d="M78.49 40.628a2.342 2.342 0 0 1-.743-.53 2.424 2.424 0 0 1-.49-.782 2.61 2.61 0 0 1-.178-.966v-.025c0-.336.058-.655.172-.955.114-.299.271-.56.472-.782a2.219 2.219 0 0 1 1.672-.727c.334 0 .645.066.93.197a2.415 2.415 0 0 1 1.243 1.324c.12.301.18.622.18.968v.025c0 .336-.058.652-.172.948a2.425 2.425 0 0 1-.479.776 2.263 2.263 0 0 1-1.678.726zm2.228.783a3.255 3.255 0 0 0 1.746-1.78c.167-.403.25-.83.25-1.281v-.025c0-.452-.082-.877-.244-1.275a3.237 3.237 0 0 0-.686-1.047 3.317 3.317 0 0 0-1.048-.715 3.262 3.262 0 0 0-1.317-.264c-.481 0-.925.088-1.329.264a3.26 3.26 0 0 0-1.733 1.78c-.165.403-.245.83-.245 1.282v.025c0 .451.08.876.245 1.274.163.398.392.748.686 1.047.294.3.64.538 1.04.715.402.176.839.264 1.312.264z"/></g><g clip-path="url(#1ip6a)"><path fill="#959799" d="M84.543 35.16h.943v1.11c.213-.346.49-.64.833-.882.344-.243.788-.364 1.336-.364.384 0 .724.062 1.022.185.299.123.551.298.76.523.208.227.368.495.478.808.11.312.165.656.165 1.035v3.953h-.943v-3.711c0-.592-.152-1.058-.453-1.402-.302-.345-.735-.516-1.299-.516-.27 0-.52.047-.753.141-.233.094-.435.23-.607.406a1.827 1.827 0 0 0-.397.632 2.258 2.258 0 0 0-.142.812v3.638h-.943z"/></g><g clip-path="url(#1ip6a)"><path fill="#959799" d="M94.304 41.647c-.457 0-.918-.083-1.383-.252a4.286 4.286 0 0 1-1.238-.683l.478-.678c.343.263.7.464 1.072.604.371.14.745.209 1.121.209.384 0 .698-.09.943-.27a.87.87 0 0 0 .368-.74v-.024a.666.666 0 0 0-.129-.407 1.17 1.17 0 0 0-.35-.302 2.854 2.854 0 0 0-.507-.227c-.192-.066-.39-.128-.595-.185a21.644 21.644 0 0 1-.74-.24 3.033 3.033 0 0 1-.675-.327c-.2-.131-.363-.296-.49-.493-.126-.197-.19-.443-.19-.739v-.025c0-.271.053-.519.16-.744.106-.227.255-.42.447-.58a2.04 2.04 0 0 1 .686-.369c.265-.086.553-.129.863-.129a3.9 3.9 0 0 1 1.19.19c.399.128.762.298 1.09.512l-.43.714a4.318 4.318 0 0 0-.925-.45 2.912 2.912 0 0 0-.949-.166c-.376 0-.674.089-.894.265a.81.81 0 0 0-.33.66v.024c0 .147.044.276.134.388.09.11.21.207.361.29.151.082.325.156.52.221.196.065.401.131.613.197.245.074.488.156.729.247.241.09.46.204.655.344.197.14.354.308.473.506.118.197.177.439.177.726v.025c0 .304-.06.573-.177.807a1.864 1.864 0 0 1-.478.598 2.12 2.12 0 0 1-.711.375c-.274.085-.57.128-.889.128"/></g><g clip-path="url(#1ip6a)"><path fill="#959799" d="M100.76 41.66c-.384 0-.725-.062-1.022-.185a2.122 2.122 0 0 1-.76-.523 2.325 2.325 0 0 1-.479-.807 3.109 3.109 0 0 1-.164-1.035v-3.954h.943v3.711c0 .591.151 1.058.453 1.403.302.343.735.516 1.299.516.27 0 .52-.048.753-.142a1.67 1.67 0 0 0 .6-.405c.168-.176.3-.387.398-.634.099-.246.148-.515.148-.81v-3.639h.931v6.368h-.931v-1.109a3 3 0 0 1-.833.881c-.344.243-.789.364-1.336.364"/></g><g clip-path="url(#1ip6a)"><path fill="#959799" d="M106.19 41.522h.942v-8.991h-.943z"/></g><g clip-path="url(#1ip6a)"><path fill="#959799" d="M111.566 41.636a2.47 2.47 0 0 1-.711-.099c-.22-.066-.41-.17-.569-.313a1.458 1.458 0 0 1-.374-.56 2.276 2.276 0 0 1-.135-.826v-3.843h-.882v-.838h.882v-1.922h.944v1.922h2.01v.838h-2.01v3.71c0 .393.098.667.294.823.196.155.453.234.77.234.165 0 .317-.017.46-.047.143-.031.297-.085.46-.163v.814a2.11 2.11 0 0 1-.52.202 2.62 2.62 0 0 1-.619.068"/></g><g clip-path="url(#1ip6a)"><path fill="#959799" d="M114.602 35.16h.943v6.368h-.943zm-.062-2.439h1.079v1.048h-1.079z"/></g><g clip-path="url(#1ip6a)"><path fill="#959799" d="M117.859 35.16h.943v1.11c.213-.346.491-.64.833-.882.344-.243.788-.364 1.336-.364.383 0 .725.062 1.022.185.3.123.552.298.76.523.209.227.368.495.478.808.11.312.165.656.165 1.035v3.953h-.943v-3.711c0-.592-.151-1.058-.453-1.402-.303-.345-.735-.516-1.298-.516-.27 0-.521.047-.754.141-.233.094-.435.23-.606.406a1.82 1.82 0 0 0-.399.632c-.094.246-.14.517-.14.812v3.638h-.944z"/></g><g clip-path="url(#1ip6a)"><path fill="#959799" d="M127.48 40.045a2.102 2.102 0 0 1-1.176-1.13 2.144 2.144 0 0 1-.177-.882v-.024c0-.33.058-.625.171-.888.116-.263.272-.488.472-.673.2-.185.433-.33.697-.432a2.48 2.48 0 0 1 1.722 0c.279.103.526.25.743.438.215.19.39.416.52.678.13.265.196.56.196.89v.023c0 .321-.066.613-.197.877a2.291 2.291 0 0 1-1.262 1.129 2.465 2.465 0 0 1-.869.155zm2.225 3.27c.408-.14.755-.355 1.042-.64.26-.265.46-.582.598-.956.14-.374.21-.807.21-1.3v-5.26h-.943v1.146a4.22 4.22 0 0 0-.442-.493 2.852 2.852 0 0 0-1.22-.683c-.248-.07-.52-.105-.814-.105-.376 0-.744.07-1.102.21-.36.14-.678.339-.956.597-.278.259-.5.573-.667.943-.168.37-.252.787-.252 1.255v.025c0 .46.084.873.252 1.237a2.934 2.934 0 0 0 1.617 1.534c.355.14.724.21 1.108.21.58 0 1.07-.131 1.47-.394a3.998 3.998 0 0 0 1.017-.949v.752c0 .747-.208 1.312-.624 1.694-.417.381-.977.573-1.679.573-.458 0-.886-.07-1.286-.21a4.51 4.51 0 0 1-1.151-.603l-.43.739a4.89 4.89 0 0 0 1.36.665c.482.147.988.221 1.52.221z"/></g><g clip-path="url(#1ip6a)"><path fill="#959799" d="M140.697 41.648a5.043 5.043 0 0 1-1.88-.338 5.372 5.372 0 0 1-1.624-1.041l.6-.714c.449.41.903.717 1.36.917.458.202.984.303 1.58.303.58 0 1.044-.138 1.392-.414.346-.274.519-.625.519-1.052v-.026c0-.196-.032-.375-.098-.535a1.102 1.102 0 0 0-.344-.438 2.44 2.44 0 0 0-.68-.356 8.754 8.754 0 0 0-1.113-.31 8.735 8.735 0 0 1-1.282-.369 3.185 3.185 0 0 1-.903-.504 1.864 1.864 0 0 1-.528-.69 2.292 2.292 0 0 1-.172-.924v-.024c0-.337.07-.65.209-.937a2.19 2.19 0 0 1 .588-.745c.252-.209.55-.373.894-.493.342-.119.719-.178 1.127-.178.628 0 1.177.088 1.647.265.47.176.926.441 1.366.795l-.564.75a4.228 4.228 0 0 0-1.206-.714 3.671 3.671 0 0 0-1.268-.221c-.563 0-1.008.133-1.336.4-.326.266-.49.597-.49.992v.024c0 .206.033.388.098.548.066.16.184.308.356.444.171.135.408.258.71.369.302.11.69.216 1.164.314.956.214 1.66.51 2.114.887.453.378.68.896.68 1.553v.024c0 .37-.073.704-.219 1.004-.144.299-.344.556-.6.77a2.71 2.71 0 0 1-.922.493 3.83 3.83 0 0 1-1.175.171"/></g><g clip-path="url(#1ip6a)"><path fill="#959799" d="M147.533 40.628a2.35 2.35 0 0 1-1.231-1.312 2.61 2.61 0 0 1-.178-.966v-.025c0-.336.057-.655.172-.955.114-.299.272-.56.472-.782a2.219 2.219 0 0 1 1.672-.727c.334 0 .645.066.93.197a2.409 2.409 0 0 1 1.244 1.324c.119.301.178.622.178.968v.025c0 .336-.057.652-.172.948a2.41 2.41 0 0 1-.478.776 2.27 2.27 0 0 1-.734.53c-.286.13-.6.196-.943.196zm2.23.783a3.248 3.248 0 0 0 1.745-1.78c.168-.403.252-.83.252-1.281v-.025c0-.452-.082-.877-.245-1.275a3.226 3.226 0 0 0-1.734-1.762 3.261 3.261 0 0 0-1.316-.264c-.482 0-.926.088-1.33.264a3.264 3.264 0 0 0-1.048.722 3.299 3.299 0 0 0-.686 1.059 3.39 3.39 0 0 0-.244 1.28v.026c0 .451.081.876.244 1.274a3.24 3.24 0 0 0 1.728 1.762c.4.176.837.264 1.31.264z"/></g><g clip-path="url(#1ip6a)"><path fill="#959799" d="M153.668 41.522h.943v-8.991h-.943z"/></g><g clip-path="url(#1ip6a)"><path fill="#959799" d="M159.252 41.66c-.384 0-.724-.062-1.023-.185a2.12 2.12 0 0 1-.76-.523 2.312 2.312 0 0 1-.477-.807 3.09 3.09 0 0 1-.166-1.035v-3.954h.944v3.711c0 .591.15 1.058.453 1.403.302.343.736.516 1.298.516.27 0 .521-.048.754-.142.232-.094.433-.229.6-.405.168-.176.3-.387.399-.634.098-.246.146-.515.146-.81v-3.639h.932v6.368h-.932v-1.109c-.213.345-.49.64-.833.881-.342.243-.788.364-1.335.364"/></g><g clip-path="url(#1ip6a)"><path fill="#959799" d="M166.717 41.636a2.47 2.47 0 0 1-.71-.099c-.22-.066-.41-.17-.57-.313a1.457 1.457 0 0 1-.374-.56 2.277 2.277 0 0 1-.134-.826v-3.843h-.882v-.838h.882v-1.922h.942v1.922h2.01v.838h-2.01v3.71c0 .393.099.667.296.823.195.155.452.234.77.234.163 0 .317-.017.46-.047.143-.031.296-.085.46-.163v.814c-.164.09-.338.158-.52.202-.184.045-.39.068-.62.068"/></g><g clip-path="url(#1ip6a)"><path fill="#959799" d="M169.754 35.16h.943v6.368h-.943zm-.062-2.439h1.078v1.048h-1.078z"/></g><g clip-path="url(#1ip6a)"><path fill="#959799" d="M174.994 40.628a2.342 2.342 0 0 1-.742-.53 2.438 2.438 0 0 1-.49-.782 2.624 2.624 0 0 1-.178-.966v-.025c0-.336.057-.655.172-.955.115-.299.272-.56.471-.782a2.226 2.226 0 0 1 1.673-.727c.334 0 .646.066.93.197a2.4 2.4 0 0 1 1.244 1.324c.119.301.178.622.178.968v.025c0 .336-.058.652-.172.948a2.423 2.423 0 0 1-.477.776 2.266 2.266 0 0 1-1.679.726zm2.228.783c.41-.177.76-.418 1.055-.721a3.39 3.39 0 0 0 .692-1.06c.167-.402.25-.829.25-1.28v-.025c0-.452-.08-.877-.245-1.275a3.216 3.216 0 0 0-.686-1.047 3.265 3.265 0 0 0-2.364-.979c-.48 0-.925.088-1.33.264a3.272 3.272 0 0 0-1.047.722 3.31 3.31 0 0 0-.686 1.059c-.163.402-.245.83-.245 1.28v.026c0 .451.082.876.245 1.274.164.398.393.748.686 1.047.295.3.642.538 1.041.715.4.176.838.264 1.312.264z"/></g><g clip-path="url(#1ip6a)"><path fill="#959799" d="M181.047 35.16h.943v1.11c.212-.346.49-.64.833-.882.344-.243.788-.364 1.336-.364.383 0 .724.062 1.022.185.298.123.551.298.76.523.208.227.368.495.478.808.11.312.165.656.165 1.035v3.953h-.943v-3.711c0-.592-.151-1.058-.453-1.402-.303-.345-.736-.516-1.3-.516-.27 0-.519.047-.753.141-.232.094-.434.23-.606.406a1.842 1.842 0 0 0-.399.632c-.093.246-.14.517-.14.812v3.638h-.943z"/></g><g clip-path="url(#1ip6a)"><path fill="#959799" d="M190.805 41.647a4.03 4.03 0 0 1-1.382-.252 4.297 4.297 0 0 1-1.236-.683l.478-.678c.342.263.7.464 1.07.604.371.14.745.209 1.12.209.382 0 .697-.09.941-.27a.874.874 0 0 0 .367-.74v-.024a.663.663 0 0 0-.128-.407 1.169 1.169 0 0 0-.35-.302 2.839 2.839 0 0 0-.506-.227 10.08 10.08 0 0 0-.594-.185 21.078 21.078 0 0 1-.74-.24 3.027 3.027 0 0 1-.672-.327 1.637 1.637 0 0 1-.49-.493c-.126-.197-.19-.443-.19-.739v-.025c0-.271.053-.519.16-.744.106-.227.255-.42.446-.58.192-.16.42-.283.685-.369.265-.086.552-.129.862-.129.392 0 .786.063 1.187.19.399.128.762.298 1.089.512l-.429.714a4.32 4.32 0 0 0-.923-.45 2.905 2.905 0 0 0-.949-.166c-.375 0-.672.089-.893.265a.814.814 0 0 0-.33.66v.024c0 .147.045.276.135.388.09.11.21.207.361.29.151.082.324.156.52.221.195.065.4.131.611.197.246.074.488.156.728.247.24.09.46.204.654.344.196.14.354.308.472.506.118.197.177.439.177.726v.025c0 .304-.059.573-.177.807a1.844 1.844 0 0 1-.477.598c-.2.164-.437.288-.71.375a2.968 2.968 0 0 1-.887.128"/></g><g clip-path="url(#1ip6a)"><path fill="#7dbd42" d="M.015 11.67v-.057c0-5.699 4.243-10.366 10.28-10.366 3.674 0 5.896 1.289 7.803 3.12l-2.25 2.607c-1.594-1.49-3.303-2.491-5.58-2.491-3.816 0-6.58 3.149-6.58 7.072v.058c0 3.923 2.764 7.13 6.58 7.13 2.448 0 4.014-1.002 5.724-2.606l2.25 2.29c-2.08 2.177-4.358 3.552-8.09 3.552C4.345 21.979.016 17.426.016 11.67"/></g><g clip-path="url(#1ip6a)"><path fill="#7dbd42" d="M26.534 18.975c-2.677 0-4.585-2.234-4.585-4.868v-.058c0-2.635 1.766-4.81 4.528-4.81 2.705 0 4.613 2.204 4.613 4.868v.057zm-.057 3.006c4.642 0 8.06-3.58 8.06-7.874v-.058c0-4.324-3.39-7.845-8.003-7.845-4.614 0-8.031 3.579-8.031 7.903v.057z"/></g><g clip-path="url(#1ip6a)"><path fill="#7dbd42" d="M36.029 6.52h3.446v2.347c.967-1.431 2.363-2.663 4.698-2.663 3.39 0 5.355 2.292 5.355 5.814v9.62h-3.446v-8.59c0-2.348-1.168-3.694-3.218-3.694-1.994 0-3.39 1.403-3.39 3.751v8.533H36.03z"/></g><g clip-path="url(#1ip6a)"><path fill="#7dbd42" d="M58.646 17.523c-2.364 0-4.272-1.692-4.272-4.184v-.058c0-2.494 1.88-4.156 4.272-4.156 2.392 0 4.414 1.69 4.414 4.184v.058zm-.286 8.754c2.706 0 4.814-.658 6.18-2.032 1.254-1.26 1.909-3.15 1.909-5.699V6.519h-3.446v2.263c-1.167-1.404-2.733-2.578-5.269-2.578-3.502 0-6.835 2.635-6.835 7.102v.058c0 4.437 3.304 7.073 6.835 7.073 2.478 0 4.044-1.146 5.298-2.78v1.176c0 3.035-1.68 4.638-4.756 4.638-2.05 0-3.76-.601-5.354-1.603l-1.282 2.606z"/></g><g clip-path="url(#1ip6a)"><path fill="#7dbd42" d="M71.39 13.012c.313-2.344 1.795-3.973 3.902-3.973 2.278 0 3.589 1.744 3.816 3.973zm-3.417 1.124c0 4.667 3.36 7.846 7.718 7.846 2.762 0 4.727-1.116 6.151-2.835l-2.022-1.804c-1.196 1.175-2.392 1.804-4.072 1.804-2.222 0-3.96-1.374-4.33-3.837h11.05c.029-.343.057-.659.057-.974 0-4.352-2.42-8.132-7.205-8.132-4.3 0-7.347 3.55-7.347 7.875z"/></g><g clip-path="url(#1ip6a)"><path fill="#7dbd42" d="M84.572 6.519h3.446v3.407c.94-2.262 2.677-3.808 5.326-3.694v3.665h-.2c-3.019 0-5.126 1.977-5.126 5.986v5.755h-3.446z"/></g><g clip-path="url(#1ip6a)"><path fill="#a6a8ab" d="M110.848 6.345c0 1.431-1.083 2.376-3.137 3.12-1.112-1.231-1.511-1.976-1.511-2.978v-.056c0-1.404.941-2.406 2.367-2.406 1.341 0 2.281.915 2.281 2.261zm.115 10.908c-1.14 1.09-2.395 1.748-3.764 1.748-1.938 0-3.335-1.23-3.335-2.921v-.057c0-1.289.798-2.52 2.651-3.322zm4.635 4.784l2.591-1.862-3.133-3.207c1.025-1.403 1.908-2.979 2.706-4.582l-2.649-1.403c-.655 1.403-1.366 2.72-2.136 3.866l-3.417-3.493c2.649-1.004 4.386-2.578 4.386-5.213v-.057c0-2.691-2.136-4.84-5.297-4.84-3.56 0-5.725 2.35-5.725 5.04v.059c0 1.46.513 2.72 1.652 4.18-2.734 1.174-4.243 3.034-4.243 5.612v.058c0 3.464 2.79 5.727 6.492 5.727 2.422 0 4.415-1.003 6.124-2.606z"/></g><g clip-path="url(#1ip6a)"><path fill="#2b6d8e" d="M127.303 1.591h14.78v3.15h-11.277v5.211h9.996v3.15h-9.996v5.384h11.42v3.15h-14.923z"/></g><g clip-path="url(#1ip6a)"><path fill="#2b6d8e" d="M145.113 21.637h3.446V.733h-3.446z"/></g><g clip-path="url(#1ip6a)"><path fill="#2b6d8e" d="M150.182 19.664l1.538-2.348c1.623 1.231 3.389 1.861 4.927 1.861 1.48 0 2.335-.63 2.335-1.632v-.057c0-1.174-1.595-1.575-3.36-2.119-2.221-.63-4.7-1.547-4.7-4.439v-.057c0-2.864 2.364-4.61 5.354-4.61 1.88 0 3.93.658 5.526 1.718l-1.368 2.463c-1.452-.888-2.99-1.432-4.243-1.432-1.339 0-2.107.63-2.107 1.517v.057c0 1.088 1.624 1.546 3.389 2.12 2.193.687 4.67 1.689 4.67 4.409v.057c0 3.179-2.449 4.754-5.582 4.754-2.136 0-4.499-.773-6.379-2.262"/></g><g clip-path="url(#1ip6a)"><path fill="#2b6d8e" d="M167.172 13.012c.314-2.344 1.795-3.973 3.902-3.973 2.278 0 3.589 1.744 3.816 3.973zm-3.417 1.124c0 4.667 3.36 7.846 7.718 7.846 2.762 0 4.727-1.116 6.152-2.835l-2.023-1.804c-1.196 1.175-2.392 1.804-4.072 1.804-2.222 0-3.96-1.374-4.33-3.837h11.05c.03-.343.058-.659.058-.974 0-4.352-2.421-8.132-7.206-8.132-4.3 0-7.347 3.55-7.347 7.875z"/></g><g clip-path="url(#1ip6a)"><path fill="#2b6d8e" d="M190 16.164c0 1.89-1.708 3.18-3.987 3.18-1.623 0-2.905-.803-2.905-2.235v-.057c0-1.46 1.282-2.348 3.446-2.348 1.34 0 2.563.257 3.446.601zm3.332 5.47V12.67c0-4.037-2.163-6.386-6.606-6.386-2.45 0-4.073.515-5.725 1.26l.94 2.777c1.367-.572 2.62-.944 4.3-.944 2.393 0 3.703 1.145 3.703 3.235v.288c-1.168-.373-2.336-.632-4.158-.632-3.503 0-6.095 1.604-6.095 4.955v.056c0 3.036 2.506 4.669 5.354 4.669 2.278 0 3.845-.945 4.87-2.177v1.861z"/></g><g clip-path="url(#1ip6a)"><path fill="none" stroke="#939597" stroke-miterlimit="20" stroke-width=".39" d="M.131 29.201H192.17"/></g></g></g></svg>