<svg xmlns="http://www.w3.org/2000/svg" width="299" height="66" viewBox="0 0 299 66"><defs><clipPath id="d10na"><path d="M0 65.27h298.965V.118H0z"/></clipPath></defs><g><g><g><path fill="#959799" d="M0 49.105v1.37h4.452v11.76h1.496v-11.76H10.4v-1.37z"/></g><g><g><path fill="#959799" d="M13.162 52.536h1.458v2.532c.177-.4.398-.77.663-1.108.265-.336.569-.627.91-.872.34-.243.713-.427 1.117-.552.405-.124.841-.18 1.307-.17v1.558h-.113a4.03 4.03 0 0 0-1.507.28 3.413 3.413 0 0 0-1.24.845c-.353.375-.63.842-.834 1.398-.202.556-.303 1.197-.303 1.922v3.864h-1.458z"/></g><g><path fill="#959799" d="M24.237 61.259c-.328 0-.639-.043-.934-.131a2.519 2.519 0 0 1-.782-.373 1.785 1.785 0 0 1-.538-.605 1.681 1.681 0 0 1-.197-.813v-.038c0-.584.248-1.054.744-1.408.497-.355 1.198-.533 2.102-.533.603 0 1.136.044 1.601.13.465.089.88.182 1.244.28v.897c0 .386-.084.738-.255 1.054-.168.318-.401.592-.696.822a3.255 3.255 0 0 1-1.028.531c-.388.126-.81.187-1.261.187m-.291 1.182c.858 0 1.574-.166 2.15-.497.575-.331 1.033-.717 1.374-1.153v1.442h1.438v-5.925c0-1.227-.34-2.176-1.022-2.852-.72-.713-1.775-1.068-3.164-1.068-.72 0-1.358.075-1.913.228-.555.153-1.105.356-1.649.608l.437 1.19a8.29 8.29 0 0 1 1.391-.508 6.257 6.257 0 0 1 1.583-.187c.922 0 1.635.221 2.14.662.506.441.76 1.09.76 1.948v.297a13.232 13.232 0 0 0-1.356-.3 10.52 10.52 0 0 0-1.638-.111c-.62 0-1.184.067-1.696.205a4.13 4.13 0 0 0-1.326.6c-.373.263-.66.592-.863.985-.202.394-.303.854-.303 1.379v.038c0 .5.105.938.313 1.313.209.375.483.691.825.947.34.257.732.448 1.173.572.442.124.891.187 1.346.187"/></g><g/><g clip-path="url(#d10na)"><path fill="#959799" d="M32.318 52.539h1.457v9.697h-1.457zm-.096-3.713h1.668v1.594h-1.668z"/></g><g clip-path="url(#d10na)"><path fill="#959799" d="M37.353 52.539h1.459v1.69c.329-.527.758-.974 1.288-1.342.53-.37 1.219-.555 2.065-.555.594 0 1.12.094 1.58.281a3.31 3.31 0 0 1 1.177.798c.32.345.567.753.738 1.23.17.475.256.999.256 1.575v6.02h-1.458v-5.652c0-.9-.235-1.61-.7-2.134-.469-.525-1.138-.786-2.01-.786-.417 0-.805.072-1.165.216a2.716 2.716 0 0 0-1.554 1.58 3.415 3.415 0 0 0-.217 1.236v5.54h-1.459z"/></g><g clip-path="url(#d10na)"><path fill="#959799" d="M49.347 52.539h1.468v9.697h-1.468zm-.095-3.713h1.668v1.594h-1.668z"/></g><g clip-path="url(#d10na)"><path fill="#959799" d="M54.383 52.539h1.459v1.69a4.573 4.573 0 0 1 1.288-1.342c.53-.37 1.219-.555 2.065-.555.593 0 1.12.094 1.58.281.463.188.854.455 1.176.798.322.345.567.753.739 1.23.171.475.256.999.256 1.575v6.02h-1.458v-5.652c0-.9-.235-1.61-.702-2.134-.467-.525-1.137-.786-2.009-.786-.416 0-.804.072-1.163.216-.361.143-.674.35-.939.617a2.78 2.78 0 0 0-.616.963 3.392 3.392 0 0 0-.217 1.236v5.54h-1.459z"/></g><g clip-path="url(#d10na)"><path fill="#959799" d="M70.56 60.222c-.454 0-.886-.081-1.296-.245a3.419 3.419 0 0 1-1.08-.675 3.18 3.18 0 0 1-.738-1.045 3.205 3.205 0 0 1-.276-1.343v-.037c0-.501.089-.952.265-1.351.177-.402.42-.744.73-1.025.31-.282.67-.502 1.079-.658.411-.156.85-.235 1.317-.235.468 0 .916.079 1.344.235.43.156.813.38 1.147.666.335.288.604.634.806 1.033.201.403.303.853.303 1.354v.037c0 .489-.102.933-.303 1.334-.202.402-.47.748-.806 1.042a3.55 3.55 0 0 1-1.147.677 3.86 3.86 0 0 1-1.344.236m.02 5.052c.782 0 1.489-.106 2.12-.318a4.164 4.164 0 0 0 1.612-.975c.403-.402.712-.885.927-1.454.215-.57.322-1.23.322-1.98V52.54h-1.457v1.744a6.36 6.36 0 0 0-.683-.75 4.353 4.353 0 0 0-.843-.618 4.47 4.47 0 0 0-1.043-.423 4.736 4.736 0 0 0-1.26-.16c-.58 0-1.149.107-1.705.32a4.598 4.598 0 0 0-1.477.91 4.43 4.43 0 0 0-1.032 1.434c-.26.563-.389 1.2-.389 1.912v.038c0 .701.13 1.329.39 1.884a4.47 4.47 0 0 0 1.031 1.427 4.696 4.696 0 0 0 3.183 1.228c.896 0 1.654-.2 2.275-.6a6.197 6.197 0 0 0 1.57-1.444v1.144c0 1.137-.322 1.998-.965 2.58-.645.58-1.51.872-2.596.872-.708 0-1.37-.107-1.99-.32a7.058 7.058 0 0 1-1.78-.918l-.662 1.125a7.627 7.627 0 0 0 2.102 1.013 8.098 8.098 0 0 0 2.35.337"/></g><g clip-path="url(#d10na)"><path fill="#959799" d="M88.754 54.451c-.253-.262-.464-.5-.634-.712a3.996 3.996 0 0 1-.407-.6 2.262 2.262 0 0 1-.284-1.107v-.038c0-.537.182-.987.549-1.35.365-.362.852-.544 1.46-.544.54 0 .99.172 1.344.516.353.344.53.778.53 1.304v.037c0 .563-.216 1.047-.644 1.454-.429.406-1.068.753-1.914 1.04zm-.38 6.715c-.403 0-.775-.063-1.115-.188a2.623 2.623 0 0 1-.883-.524 2.37 2.37 0 0 1-.568-.789 2.386 2.386 0 0 1-.199-.975v-.037c0-.563.202-1.09.607-1.584.404-.495 1.048-.903 1.932-1.23l3.543 3.622c-.48.524-.995.94-1.544 1.246a3.58 3.58 0 0 1-1.772.459zm6.329 1.332l1.137-.863-2.311-2.345c.365-.474.704-.987 1.013-1.538.309-.55.609-1.138.9-1.763l-1.232-.563a19.34 19.34 0 0 1-.758 1.557c-.265.488-.542.945-.833 1.371l-3.032-3.058c.974-.339 1.737-.782 2.293-1.331.555-.551.832-1.246.832-2.083v-.038c0-.412-.08-.796-.244-1.154a3.04 3.04 0 0 0-.674-.936 3.18 3.18 0 0 0-1.012-.64 3.451 3.451 0 0 0-1.288-.232c-.532 0-1.012.08-1.44.242-.43.164-.795.385-1.1.668a3 3 0 0 0-.966 2.202v.038c0 .524.109 1.007.323 1.445.214.436.55.919 1.004 1.443-1.023.401-1.813.914-2.369 1.538-.555.625-.833 1.377-.833 2.251v.038c0 .55.105 1.05.313 1.5.208.45.499.839.87 1.164a3.92 3.92 0 0 0 1.327.75 5.11 5.11 0 0 0 1.658.261c.87 0 1.66-.177 2.367-.532.709-.359 1.364-.861 1.97-1.512z"/></g><g clip-path="url(#d10na)"><path fill="#959799" d="M110.442 62.461c-.96 0-1.844-.174-2.652-.526a6.515 6.515 0 0 1-2.102-1.433 6.55 6.55 0 0 1-1.394-2.148 6.99 6.99 0 0 1-.5-2.646v-.037c0-.925.166-1.8.5-2.627a6.76 6.76 0 0 1 1.394-2.165 6.481 6.481 0 0 1 2.121-1.464 6.7 6.7 0 0 1 2.69-.534c.606 0 1.153.05 1.638.15.487.1.938.241 1.355.422.417.182.802.402 1.155.657.353.256.695.541 1.024.853l-1.024 1.089a8.332 8.332 0 0 0-1.828-1.295c-.65-.337-1.43-.506-2.339-.506a4.987 4.987 0 0 0-3.665 1.556 5.32 5.32 0 0 0-1.08 1.716 5.722 5.722 0 0 0-.389 2.111v.037c0 .765.13 1.473.388 2.13.26.656.62 1.229 1.08 1.716.46.488 1.004.873 1.63 1.153a4.92 4.92 0 0 0 2.036.422c.91 0 1.693-.166 2.35-.497.656-.331 1.3-.798 1.932-1.397l.985.956c-.343.35-.7.666-1.071.947a6.61 6.61 0 0 1-1.203.723c-.43.2-.89.357-1.382.47a7.543 7.543 0 0 1-1.65.167"/></g><g clip-path="url(#d10na)"><path fill="#959799" d="M122.813 61.166c-.517 0-.998-.1-1.438-.3a3.62 3.62 0 0 1-1.905-1.998 3.92 3.92 0 0 1-.275-1.472v-.038c0-.511.089-.997.266-1.454.176-.454.418-.853.728-1.19a3.43 3.43 0 0 1 1.128-.807c.441-.2.927-.3 1.459-.3.516 0 .998.1 1.439.3a3.693 3.693 0 0 1 1.923 2.016c.183.458.276.947.276 1.473v.038c0 .513-.09.994-.266 1.444-.177.45-.424.844-.74 1.181a3.498 3.498 0 0 1-2.595 1.107m-.037 1.293c.73 0 1.414-.133 2.045-.402a5.038 5.038 0 0 0 1.63-1.098c.455-.462.811-1 1.07-1.612a4.972 4.972 0 0 0 .388-1.95v-.039c0-.688-.127-1.334-.379-1.94a4.923 4.923 0 0 0-1.06-1.595 5.112 5.112 0 0 0-3.658-1.49 5.045 5.045 0 0 0-3.674 1.5 5.05 5.05 0 0 0-1.44 3.563v.038a4.973 4.973 0 0 0 1.44 3.535c.455.456.992.819 1.61 1.088.62.27 1.296.402 2.028.402"/></g><g clip-path="url(#d10na)"><path fill="#959799" d="M130.737 52.539h1.458v1.69c.33-.527.758-.974 1.288-1.342.531-.37 1.22-.555 2.066-.555.593 0 1.12.094 1.58.281a3.3 3.3 0 0 1 1.177.798c.32.345.568.753.738 1.23.17.475.255.999.255 1.575v6.02h-1.458v-5.652c0-.9-.235-1.61-.7-2.134-.468-.525-1.137-.786-2.009-.786-.417 0-.805.072-1.165.216a2.716 2.716 0 0 0-1.553 1.58 3.392 3.392 0 0 0-.219 1.236v5.54h-1.458z"/></g><g clip-path="url(#d10na)"><path fill="#959799" d="M145.832 62.418a6.33 6.33 0 0 1-2.14-.384 6.659 6.659 0 0 1-1.914-1.041l.739-1.032c.53.4 1.083.707 1.658.92a4.941 4.941 0 0 0 1.733.317c.594 0 1.08-.136 1.459-.41.378-.276.568-.65.568-1.127v-.037c0-.238-.067-.443-.199-.62a1.802 1.802 0 0 0-.54-.459 4.447 4.447 0 0 0-.786-.346c-.296-.1-.603-.195-.919-.281a33.834 33.834 0 0 1-1.146-.366 4.721 4.721 0 0 1-1.042-.499 2.523 2.523 0 0 1-.757-.749c-.196-.3-.294-.676-.294-1.126v-.038a2.546 2.546 0 0 1 .937-2.016 3.171 3.171 0 0 1 1.061-.562c.41-.132.855-.197 1.336-.197.606 0 1.218.097 1.838.29.618.195 1.18.454 1.686.78l-.663 1.087a6.723 6.723 0 0 0-1.431-.685 4.565 4.565 0 0 0-1.468-.253c-.581 0-1.042.135-1.382.403-.342.268-.512.603-.512 1.004v.038a.9.9 0 0 0 .208.59c.14.17.325.315.559.442.233.125.503.237.805.337.302.1.62.2.947.299.38.114.755.238 1.127.376.373.139.71.312 1.013.525.304.212.547.47.73.77.183.3.275.668.275 1.105v.038c0 .463-.092.873-.274 1.23-.184.355-.43.658-.74.91-.31.25-.675.438-1.099.571a4.67 4.67 0 0 1-1.373.196"/></g><g clip-path="url(#d10na)"><path fill="#959799" d="M155.815 62.437c-.594 0-1.121-.094-1.581-.282a3.284 3.284 0 0 1-1.175-.796 3.529 3.529 0 0 1-.74-1.23c-.17-.474-.255-1-.255-1.575v-6.021h1.458v5.651c0 .9.235 1.61.7 2.136.469.522 1.139.786 2.01.786.417 0 .804-.073 1.164-.217.361-.143.67-.347.928-.616.26-.268.464-.59.616-.965.153-.374.228-.785.228-1.234v-5.541h1.44v9.697h-1.44v-1.688c-.33.525-.758.973-1.287 1.34-.532.37-1.22.555-2.066.555"/></g><g clip-path="url(#d10na)"><path fill="#959799" d="M164.21 62.227h1.459V48.535h-1.458z"/></g><g clip-path="url(#d10na)"><path fill="#959799" d="M172.525 62.401c-.393 0-.758-.05-1.1-.15-.34-.101-.634-.26-.88-.478a2.218 2.218 0 0 1-.578-.854c-.139-.35-.209-.77-.209-1.257V53.81h-1.363v-1.276h1.363v-2.927h1.46v2.927h3.107v1.276h-3.107v5.65c0 .598.15 1.016.454 1.253.304.236.7.356 1.192.356.255 0 .49-.025.712-.07.22-.049.458-.131.71-.25v1.24c-.252.137-.522.24-.805.308a4.11 4.11 0 0 1-.956.104"/></g><g clip-path="url(#d10na)"><path fill="#959799" d="M177.22 52.539h1.458v9.697h-1.458zm-.096-3.713h1.668v1.594h-1.668z"/></g><g clip-path="url(#d10na)"><path fill="#959799" d="M182.256 52.539h1.459v1.69a4.587 4.587 0 0 1 1.288-1.342c.531-.37 1.218-.555 2.065-.555.593 0 1.121.094 1.581.281.463.188.853.455 1.175.798.323.345.569.753.74 1.23.17.475.255.999.255 1.575v6.02h-1.46v-5.652c0-.9-.233-1.61-.7-2.134-.468-.525-1.136-.786-2.007-.786-.417 0-.805.072-1.165.216a2.7 2.7 0 0 0-.937.617c-.268.268-.472.59-.617.963a3.392 3.392 0 0 0-.218 1.236v5.54h-1.46z"/></g><g clip-path="url(#d10na)"><path fill="#959799" d="M198.433 60.222a3.485 3.485 0 0 1-2.377-.92 3.222 3.222 0 0 1-1.014-2.388v-.037c0-.501.089-.952.265-1.351.178-.402.42-.744.73-1.025.308-.282.67-.502 1.078-.658a3.682 3.682 0 0 1 1.318-.235c.467 0 .916.079 1.344.235.431.156.814.38 1.149.666.332.288.602.634.803 1.033.201.403.304.853.304 1.354v.037c0 .489-.103.933-.304 1.334-.201.402-.47.748-.803 1.042a3.555 3.555 0 0 1-1.149.677 3.864 3.864 0 0 1-1.344.236m.02 5.052c.782 0 1.49-.106 2.122-.318a4.168 4.168 0 0 0 1.61-.975 4.02 4.02 0 0 0 .926-1.454c.216-.57.324-1.23.324-1.98V52.54h-1.458v1.744a6.46 6.46 0 0 0-.683-.75 4.45 4.45 0 0 0-1.886-1.04 4.73 4.73 0 0 0-1.26-.161c-.581 0-1.15.107-1.704.32a4.598 4.598 0 0 0-1.478.91 4.43 4.43 0 0 0-1.032 1.434c-.26.563-.389 1.2-.389 1.912v.038c0 .701.13 1.329.39 1.884a4.47 4.47 0 0 0 1.031 1.427c.43.393.92.697 1.469.909.549.213 1.12.32 1.714.32.897 0 1.654-.2 2.272-.601.62-.4 1.143-.881 1.573-1.444v1.144c0 1.137-.32 1.998-.965 2.58-.645.58-1.51.872-2.596.872-.708 0-1.37-.107-1.99-.32a7.014 7.014 0 0 1-1.78-.918l-.662 1.125a7.612 7.612 0 0 0 2.102 1.013 8.098 8.098 0 0 0 2.35.337"/></g><g clip-path="url(#d10na)"><path fill="#959799" d="M217.572 62.419c-1.06 0-2.03-.171-2.907-.515-.879-.345-1.715-.872-2.51-1.586l.927-1.086c.694.625 1.397 1.09 2.104 1.396.707.307 1.521.46 2.444.46.896 0 1.612-.209 2.15-.629.536-.418.803-.952.803-1.602v-.04c0-.299-.05-.571-.15-.815a1.683 1.683 0 0 0-.533-.666c-.253-.199-.603-.381-1.052-.543a13.703 13.703 0 0 0-1.72-.47 13.67 13.67 0 0 1-1.983-.563c-.564-.212-1.03-.468-1.397-.768-.366-.3-.64-.65-.817-1.05-.177-.4-.265-.869-.265-1.408v-.037c0-.512.107-.988.323-1.426.213-.436.516-.815.909-1.134.39-.319.852-.569 1.382-.75a5.372 5.372 0 0 1 1.744-.272c.971 0 1.82.134 2.547.404a7.728 7.728 0 0 1 2.112 1.21l-.872 1.143c-.619-.5-1.24-.862-1.865-1.089a5.756 5.756 0 0 0-1.96-.336c-.872 0-1.56.202-2.066.61-.506.405-.757.909-.757 1.51v.036c0 .314.05.591.15.835.101.244.285.469.55.676.265.206.632.392 1.1.562.466.169 1.067.328 1.799.478 1.478.326 2.567.777 3.268 1.351.7.575 1.051 1.364 1.051 2.364v.037a3.418 3.418 0 0 1-1.265 2.701c-.394.325-.87.574-1.426.75a6.007 6.007 0 0 1-1.818.262"/></g><g clip-path="url(#d10na)"><path fill="#959799" d="M229.585 61.166c-.52 0-1-.1-1.44-.3a3.633 3.633 0 0 1-1.148-.807 3.721 3.721 0 0 1-.758-1.191 3.92 3.92 0 0 1-.274-1.472v-.038c0-.511.088-.997.265-1.454.178-.454.421-.853.73-1.19a3.43 3.43 0 0 1 1.128-.807c.441-.2.926-.3 1.458-.3.517 0 .998.1 1.44.3a3.705 3.705 0 0 1 1.923 2.017c.183.457.274.946.274 1.472v.038c0 .513-.087.994-.266 1.444-.176.45-.423.844-.738 1.181a3.51 3.51 0 0 1-2.594 1.107m-.039 1.293c.731 0 1.415-.133 2.046-.402a5.026 5.026 0 0 0 1.63-1.098c.453-.462.81-1 1.069-1.612.26-.613.39-1.263.39-1.95v-.039c0-.688-.127-1.334-.38-1.94a4.905 4.905 0 0 0-1.06-1.595 5.11 5.11 0 0 0-3.656-1.49 5.05 5.05 0 0 0-3.677 1.5c-.453.462-.809 1-1.061 1.612a5.092 5.092 0 0 0-.377 1.951v.038c0 .688.125 1.334.377 1.94a4.926 4.926 0 0 0 1.06 1.595c.457.456.993.819 1.611 1.088a5.03 5.03 0 0 0 2.028.402"/></g><g clip-path="url(#d10na)"><path fill="#959799" d="M237.632 62.227h1.458V48.535h-1.458z"/></g><g clip-path="url(#d10na)"><path fill="#959799" d="M246.266 62.437c-.593 0-1.12-.094-1.582-.282a3.28 3.28 0 0 1-1.174-.796 3.51 3.51 0 0 1-.739-1.23 4.64 4.64 0 0 1-.256-1.575v-6.021h1.46v5.651c0 .9.232 1.61.7 2.136.467.522 1.138.786 2.007.786.418 0 .806-.073 1.165-.217.36-.143.67-.347.93-.616.26-.268.463-.59.615-.965.152-.374.227-.785.227-1.234v-5.541h1.44v9.697h-1.44v-1.688c-.33.525-.758.973-1.288 1.34-.53.37-1.219.555-2.065.555"/></g><g clip-path="url(#d10na)"><path fill="#959799" d="M257.81 62.401c-.392 0-.757-.05-1.1-.15-.34-.101-.633-.26-.88-.478a2.216 2.216 0 0 1-.577-.854c-.14-.35-.208-.77-.208-1.257V53.81h-1.365v-1.276h1.365v-2.927h1.457v2.927h3.109v1.276h-3.109v5.65c0 .598.153 1.016.457 1.253.302.236.7.356 1.192.356.252 0 .49-.025.71-.07.222-.049.459-.131.711-.25v1.24c-.252.137-.522.24-.804.308a4.113 4.113 0 0 1-.957.104"/></g><g clip-path="url(#d10na)"><path fill="#959799" d="M262.506 52.539h1.458v9.697h-1.458zm-.096-3.713h1.668v1.594h-1.668z"/></g><g clip-path="url(#d10na)"><path fill="#959799" d="M272.048 61.166c-.519 0-1-.1-1.439-.3a3.62 3.62 0 0 1-1.906-1.998 3.942 3.942 0 0 1-.274-1.472v-.038c0-.511.088-.997.266-1.454.177-.454.42-.853.729-1.19.31-.337.684-.606 1.128-.807.442-.2.927-.3 1.458-.3.517 0 .999.1 1.439.3.442.2.828.473 1.156.816.33.344.584.743.767 1.2.184.458.276.947.276 1.473v.038c0 .513-.09.994-.266 1.444a3.68 3.68 0 0 1-.739 1.181 3.503 3.503 0 0 1-2.595 1.107m-.038 1.293c.732 0 1.414-.133 2.045-.402a5.007 5.007 0 0 0 1.63-1.098c.454-.462.811-1 1.07-1.612a4.972 4.972 0 0 0 .389-1.95v-.039a4.973 4.973 0 0 0-1.44-3.535 5.116 5.116 0 0 0-3.655-1.49c-.745-.001-1.432.133-2.057.401a5.062 5.062 0 0 0-1.62 1.099 5.072 5.072 0 0 0-1.44 3.563v.038c0 .688.127 1.334.38 1.94a4.941 4.941 0 0 0 1.06 1.595c.456.456.992.819 1.61 1.088.62.27 1.296.402 2.028.402"/></g><g clip-path="url(#d10na)"><path fill="#959799" d="M279.97 52.539h1.458v1.69a4.573 4.573 0 0 1 1.288-1.342c.531-.37 1.218-.555 2.066-.555.592 0 1.12.094 1.58.281a3.31 3.31 0 0 1 1.177.798c.32.345.567.753.737 1.23.172.475.256.999.256 1.575v6.02h-1.46v-5.652c0-.9-.233-1.61-.7-2.134-.467-.525-1.136-.786-2.008-.786-.417 0-.803.072-1.165.216a2.722 2.722 0 0 0-1.554 1.58 3.415 3.415 0 0 0-.217 1.236v5.54h-1.458z"/></g><g clip-path="url(#d10na)"><path fill="#959799" d="M295.06 62.418a6.318 6.318 0 0 1-2.138-.384 6.676 6.676 0 0 1-1.91-1.041l.738-1.032c.53.4 1.081.707 1.654.92a4.941 4.941 0 0 0 1.731.317c.593 0 1.079-.136 1.457-.41.377-.276.568-.65.568-1.127v-.037a1 1 0 0 0-.2-.62 1.8 1.8 0 0 0-.539-.459 4.424 4.424 0 0 0-.784-.346c-.296-.1-.602-.195-.917-.281-.38-.114-.76-.235-1.145-.366a4.71 4.71 0 0 1-1.04-.499c-.31-.198-.56-.45-.757-.749-.195-.3-.293-.676-.293-1.126v-.038a2.558 2.558 0 0 1 .936-2.016c.296-.244.65-.431 1.06-.562a4.319 4.319 0 0 1 1.332-.197 6.1 6.1 0 0 1 1.836.29c.617.195 1.179.454 1.683.78l-.662 1.087a6.726 6.726 0 0 0-1.428-.685 4.555 4.555 0 0 0-1.467-.253c-.58 0-1.04.135-1.38.403-.34.268-.511.603-.511 1.004v.038c0 .224.07.42.208.59.139.17.325.315.559.442.233.125.5.237.803.337.303.1.62.2.946.299.38.114.754.238 1.126.376.372.139.71.312 1.011.525.303.212.548.47.729.77.183.3.273.668.273 1.105v.038c0 .463-.09.873-.273 1.23-.181.355-.43.658-.738.91-.308.25-.674.438-1.097.571-.422.13-.88.196-1.371.196"/></g><g clip-path="url(#d10na)"><path fill="#7dbd42" d="M.023 16.77v-.086C.023 8.006 6.584.898 15.92.898c5.681 0 9.117 1.963 12.066 4.753l-3.478 3.968c-2.467-2.267-5.11-3.793-8.632-3.793-5.9 0-10.174 4.795-10.174 10.77v.088c0 5.973 4.274 10.857 10.174 10.857 3.788 0 6.21-1.527 8.853-3.969l3.478 3.489c-3.216 3.314-6.738 5.407-12.508 5.407C6.717 32.468.023 25.535.023 16.77"/></g><g clip-path="url(#d10na)"><path fill="#7dbd42" d="M48.078 20.567c0 3.969-2.732 7.327-7.047 7.327-4.139 0-7.09-3.402-7.09-7.413v-.088c0-4.012 2.731-7.325 7.002-7.325 4.184 0 7.135 3.356 7.135 7.413v.086m-19.465 0c0 6.54 5.24 11.904 12.33 11.904 7.179 0 12.464-5.45 12.464-11.99v-.088c0-6.584-5.242-11.946-12.376-11.946-7.134 0-12.418 5.45-12.418 12.034v.086"/></g><g clip-path="url(#d10na)"><path fill="#7dbd42" d="M55.714 8.927h5.33v3.576c1.496-2.18 3.655-4.056 7.265-4.056 5.24 0 8.28 3.49 8.28 8.853v14.65H71.26V18.868c0-3.576-1.805-5.625-4.976-5.625-3.083 0-5.24 2.136-5.24 5.712v12.993h-5.33z"/></g><g clip-path="url(#d10na)"><path fill="#7dbd42" d="M97.516 19.355c0 3.708-3.128 6.328-6.827 6.328-3.655 0-6.606-2.576-6.606-6.372v-.088c0-3.797 2.908-6.328 6.606-6.328 3.7 0 6.827 2.575 6.827 6.371v.089m-17.66 16.912c2.995 1.787 6.562 2.745 10.392 2.745 4.184 0 7.444-1.001 9.557-3.094 1.939-1.918 2.95-4.796 2.95-8.677V8.927h-5.327v3.445c-1.806-2.137-4.227-3.925-8.149-3.925-5.415 0-10.568 4.012-10.568 10.814v.088c0 6.757 5.109 10.77 10.568 10.77 3.833 0 6.254-1.744 8.193-4.23v1.788c0 4.622-2.599 7.063-7.355 7.063-3.17 0-5.812-.916-8.279-2.441l-1.982 3.968"/></g><g clip-path="url(#d10na)"><path fill="#7dbd42" d="M110.398 18.814c.484-3.57 2.774-6.05 6.034-6.05 3.522 0 5.548 2.655 5.9 6.05zm-5.285 1.71c0 7.108 5.197 11.948 11.934 11.948 4.271 0 7.31-1.7 9.514-4.317l-3.128-2.746c-1.85 1.79-3.7 2.746-6.298 2.746-3.435 0-6.121-2.091-6.694-5.842h17.087c.044-.523.088-1.003.088-1.483 0-6.628-3.743-12.383-11.142-12.383-6.65 0-11.361 5.407-11.361 11.992z"/></g><g clip-path="url(#d10na)"><path fill="#7dbd42" d="M130.782 8.926h5.329v5.19c1.453-3.446 4.139-5.8 8.235-5.627v5.582h-.308c-4.669 0-7.927 3.01-7.927 9.114v8.763h-5.329z"/></g><g clip-path="url(#d10na)"><path fill="#a6a8ab" d="M171.415 8.661c0 2.18-1.675 3.618-4.852 4.752-1.72-1.875-2.337-3.01-2.337-4.535v-.086c0-2.137 1.456-3.664 3.661-3.664 2.074 0 3.528 1.395 3.528 3.444zm.177 16.61c-1.763 1.66-3.703 2.662-5.82 2.662-2.997 0-5.158-1.874-5.158-4.448V23.4c0-1.963 1.235-3.838 4.1-5.06zm7.167 7.285l4.008-2.835-4.846-4.884c1.586-2.136 2.95-4.535 4.185-6.976l-4.095-2.137c-1.014 2.137-2.114 4.143-3.304 5.886l-5.285-5.318c4.096-1.528 6.783-3.925 6.783-7.938v-.087c0-4.098-3.303-7.369-8.191-7.369-5.505 0-8.853 3.577-8.853 7.674v.09c0 2.222.793 4.141 2.555 6.364-4.228 1.788-6.562 4.621-6.562 8.546v.088c0 5.276 4.315 8.72 10.04 8.72 3.744 0 6.827-1.526 9.47-3.967z"/></g><g clip-path="url(#d10na)"><path fill="#2b6d8e" d="M196.86 1.423h22.857V6.22h-17.44v7.935h15.458v4.797h-15.457v8.198h17.66v4.796H196.86z"/></g><g clip-path="url(#d10na)"><path fill="#2b6d8e" d="M224.402 31.947h5.328V.117h-5.328z"/></g><g clip-path="url(#d10na)"><path fill="#2b6d8e" d="M232.24 28.942l2.378-3.574c2.51 1.875 5.241 2.834 7.62 2.834 2.29 0 3.61-.96 3.61-2.486v-.087c0-1.788-2.466-2.398-5.196-3.226-3.434-.96-7.267-2.356-7.267-6.76v-.086c0-4.362 3.656-7.02 8.28-7.02 2.907 0 6.077 1.002 8.544 2.616l-2.115 3.75c-2.246-1.352-4.624-2.18-6.561-2.18-2.071 0-3.259.959-3.259 2.31v.087c0 1.656 2.511 2.354 5.24 3.227 3.392 1.047 7.223 2.572 7.223 6.714v.088c0 4.84-3.787 7.238-8.632 7.238-3.304 0-6.957-1.177-9.864-3.445"/></g><g clip-path="url(#d10na)"><path fill="#2b6d8e" d="M258.513 18.814c.486-3.57 2.776-6.05 6.035-6.05 3.522 0 5.549 2.655 5.9 6.05zm-5.284 1.71c0 7.108 5.197 11.948 11.935 11.948 4.272 0 7.31-1.7 9.513-4.317l-3.127-2.746c-1.85 1.79-3.7 2.746-6.298 2.746-3.435 0-6.122-2.091-6.695-5.842h17.088c.045-.523.089-1.003.089-1.483 0-6.628-3.745-12.383-11.143-12.383-6.65 0-11.362 5.407-11.362 11.992z"/></g><g clip-path="url(#d10na)"><path fill="#2b6d8e" d="M293.814 23.614c0 2.878-2.641 4.84-6.165 4.84-2.51 0-4.492-1.221-4.492-3.402v-.086c0-2.223 1.983-3.576 5.33-3.576 2.07 0 3.962.391 5.327.916zm5.153 8.328V18.294c0-6.147-3.345-9.724-10.216-9.724-3.788 0-6.298.785-8.852 1.92l1.452 4.228c2.115-.87 4.053-1.438 6.651-1.438 3.7 0 5.725 1.744 5.725 4.927v.437c-1.806-.568-3.611-.961-6.43-.961-5.417 0-9.425 2.442-9.425 7.544v.086c0 4.623 3.876 7.109 8.28 7.109 3.523 0 5.945-1.438 7.53-3.314v2.834z"/></g><g clip-path="url(#d10na)"><path fill="none" stroke="#939597" stroke-miterlimit="20" stroke-width=".39" d="M.203 43.466h296.966"/></g></g></g></g></svg>